<?xml version="1.0" encoding="UTF-8" standalone="no"?>
<!DOCTYPE svg PUBLIC "-//W3C//DTD SVG 1.1//EN"
 "http://www.w3.org/Graphics/SVG/1.1/DTD/svg11.dtd">
<!-- Generated by graphviz version 14.1.5 (20260411.2331)
 -->
<!-- Title: G Pages: 1 -->
<svg width="733pt" height="1344pt"
 viewBox="0.00 0.00 733.00 1344.00" xmlns="http://www.w3.org/2000/svg" xmlns:xlink="http://www.w3.org/1999/xlink">
<g id="graph0" class="graph" transform="scale(1 1) rotate(0) translate(4 1340)">
<title>G</title><style>.edge>path:hover{stroke-width:8}</style>
<polygon fill="white" stroke="none" points="-4,4 -4,-1340 729.38,-1340 729.38,4 -4,4"/>
<!-- agents -->
<g id="node1" class="node">
<title>agents</title><style>.edge>path:hover{stroke-width:8}</style>
<polygon fill="#b65353" stroke="black" points="446,-145 443,-149 422,-149 419,-145 392,-145 392,-109 446,-109 446,-145"/>
<text xml:space="preserve" text-anchor="middle" x="419" y="-123.12" font-family="Helvetica,sans-Serif" font-size="10.00" fill="#ffffff">agents</text>
</g>
<!-- main_py -->
<g id="node14" class="node">
<title>main_py</title><style>.edge>path:hover{stroke-width:8}</style>
<ellipse fill="#356351" stroke="black" cx="419" cy="-18" rx="29.88" ry="18"/>
<text xml:space="preserve" text-anchor="middle" x="419" y="-14.12" font-family="Helvetica,sans-Serif" font-size="10.00" fill="#ffffff">main.py</text>
</g>
<!-- agents&#45;&gt;main_py -->
<g id="edge1" class="edge">
<title>agents&#45;&gt;main_py</title><style>.edge>path:hover{stroke-width:8}</style>
<path fill="none" stroke="black" d="M419.45,-108.8C419.61,-98.43 419.62,-84.95 419,-73"/>
</g>
<!-- anyio -->
<g id="node2" class="node">
<title>anyio</title><style>.edge>path:hover{stroke-width:8}</style>
<polygon fill="blue" stroke="black" points="166,-1155 163,-1159 142,-1159 139,-1155 112,-1155 112,-1119 166,-1119 166,-1155"/>
<text xml:space="preserve" text-anchor="middle" x="139" y="-1133.12" font-family="Helvetica,sans-Serif" font-size="10.00" fill="white">anyio</text>
</g>
<!-- httpcore -->
<g id="node11" class="node">
<title>httpcore</title><style>.edge>path:hover{stroke-width:8}</style>
<polygon fill="#267326" stroke="black" points="185,-939 182,-943 161,-943 158,-939 131,-939 131,-903 185,-903 185,-939"/>
<text xml:space="preserve" text-anchor="middle" x="158" y="-917.12" font-family="Helvetica,sans-Serif" font-size="10.00" fill="#ffffff">httpcore</text>
</g>
<!-- anyio&#45;&gt;httpcore -->
<g id="edge2" class="edge">
<title>anyio&#45;&gt;httpcore</title><style>.edge>path:hover{stroke-width:8}</style>
<path fill="none" stroke="black" d="M158,-992C155.53,-978.6 155.22,-963.5 155.66,-950.77"/>
<polygon fill="blue" stroke="black" points="159.15,-951.1 156.18,-940.93 152.15,-950.73 159.15,-951.1"/>
</g>
<!-- ollama -->
<g id="node15" class="node">
<title>ollama</title><style>.edge>path:hover{stroke-width:8}</style>
<polygon fill="blue" stroke="black" points="438,-614 435,-618 414,-618 411,-614 384,-614 384,-578 438,-578 438,-614"/>
<text xml:space="preserve" text-anchor="middle" x="411" y="-592.12" font-family="Helvetica,sans-Serif" font-size="10.00" fill="white">ollama</text>
</g>
<!-- anyio&#45;&gt;ollama -->
<g id="edge3" class="edge">
<title>anyio&#45;&gt;ollama</title><style>.edge>path:hover{stroke-width:8}</style>
<path fill="none" stroke="black" d="M144.77,-1118.86C153,-1092.09 166.26,-1038.76 158,-994"/>
<path fill="none" stroke="black" d="M398,-667C405.18,-654.54 408.52,-638.94 410.03,-625.63"/>
<polygon fill="blue" stroke="black" points="413.51,-625.97 410.83,-615.72 406.53,-625.41 413.51,-625.97"/>
<path fill="none" stroke="black" d="M158,-992C153.06,-963.96 130.37,-966.22 122,-939 107.58,-892.09 115.27,-870.04 145,-831 198.7,-760.49 237.16,-769.48 312,-722 349.91,-697.95 375.58,-707.9 398,-669"/>
</g>
<!-- certifi -->
<g id="node3" class="node">
<title>certifi</title><style>.edge>path:hover{stroke-width:8}</style>
<polygon fill="#c07340" stroke="black" points="265,-1083 262,-1087 241,-1087 238,-1083 211,-1083 211,-1047 265,-1047 265,-1083"/>
<text xml:space="preserve" text-anchor="middle" x="238" y="-1061.12" font-family="Helvetica,sans-Serif" font-size="10.00" fill="#000000">certifi</text>
</g>
<!-- certifi&#45;&gt;httpcore -->
<g id="edge4" class="edge">
<title>certifi&#45;&gt;httpcore</title><style>.edge>path:hover{stroke-width:8}</style>
<path fill="none" stroke="black" d="M255,-992C249.74,-963.17 220.8,-944.85 195.89,-934.22"/>
<polygon fill="#c07340" stroke="black" points="197.18,-930.97 186.6,-930.55 194.61,-937.48 197.18,-930.97"/>
<path fill="none" stroke="black" d="M246.42,-1046.57C252.2,-1032.48 258.3,-1012.09 255,-994"/>
</g>
<!-- httpx -->
<g id="node12" class="node">
<title>httpx</title><style>.edge>path:hover{stroke-width:8}</style>
<polygon fill="blue" stroke="black" points="375,-758 372,-762 351,-762 348,-758 321,-758 321,-722 375,-722 375,-758"/>
<text xml:space="preserve" text-anchor="middle" x="348" y="-736.12" font-family="Helvetica,sans-Serif" font-size="10.00" fill="white">httpx</text>
</g>
<!-- certifi&#45;&gt;httpx -->
<g id="edge5" class="edge">
<title>certifi&#45;&gt;httpx</title><style>.edge>path:hover{stroke-width:8}</style>
<path fill="none" stroke="black" d="M255,-992C247.14,-948.93 224.38,-826.29 255,-795"/>
</g>
<!-- click -->
<g id="node4" class="node">
<title>click</title><style>.edge>path:hover{stroke-width:8}</style>
<polygon fill="blue" stroke="black" points="375,-1083 372,-1087 351,-1087 348,-1083 321,-1083 321,-1047 375,-1047 375,-1083"/>
<text xml:space="preserve" text-anchor="middle" x="348" y="-1061.12" font-family="Helvetica,sans-Serif" font-size="10.00" fill="white">click</text>
</g>
<!-- click&#45;&gt;httpx -->
<g id="edge6" class="edge">
<title>click&#45;&gt;httpx</title><style>.edge>path:hover{stroke-width:8}</style>
<path fill="none" stroke="black" d="M345.7,-1046.74C344.33,-1032.4 343.61,-1011.57 348,-994"/>
</g>
<!-- config -->
<g id="node5" class="node">
<title>config</title><style>.edge>path:hover{stroke-width:8}</style>
<polygon fill="#d9b526" stroke="black" points="364,-361 361,-365 340,-365 337,-361 310,-361 310,-325 364,-325 364,-361"/>
<text xml:space="preserve" text-anchor="middle" x="337" y="-339.12" font-family="Helvetica,sans-Serif" font-size="10.00" fill="#000000">config</text>
</g>
<!-- db -->
<g id="node6" class="node">
<title>db</title><style>.edge>path:hover{stroke-width:8}</style>
<polygon fill="#cccc33" stroke="black" points="336,-289 333,-293 312,-293 309,-289 282,-289 282,-253 336,-253 336,-289"/>
<text xml:space="preserve" text-anchor="middle" x="309" y="-267.12" font-family="Helvetica,sans-Serif" font-size="10.00" fill="#000000">db</text>
</g>
<!-- config&#45;&gt;db -->
<g id="edge7" class="edge">
<title>config&#45;&gt;db</title><style>.edge>path:hover{stroke-width:8}</style>
<path fill="none" stroke="black" d="M330.08,-324.7C327.06,-317.15 323.45,-308.12 320.07,-299.68"/>
<polygon fill="#d9b526" stroke="black" points="323.37,-298.49 316.4,-290.51 316.87,-301.09 323.37,-298.49"/>
</g>
<!-- exporter -->
<g id="node8" class="node">
<title>exporter</title><style>.edge>path:hover{stroke-width:8}</style>
<polygon fill="#84ac49" stroke="black" points="336,-217 333,-221 312,-221 309,-217 282,-217 282,-181 336,-181 336,-217"/>
<text xml:space="preserve" text-anchor="middle" x="309" y="-195.12" font-family="Helvetica,sans-Serif" font-size="10.00" fill="#000000">exporter</text>
</g>
<!-- config&#45;&gt;exporter -->
<g id="edge8" class="edge">
<title>config&#45;&gt;exporter</title><style>.edge>path:hover{stroke-width:8}</style>
<path fill="none" stroke="black" d="M309.57,-327.17C295.87,-318.13 280.61,-305.19 273,-289 263.3,-268.38 274.23,-244.41 286.51,-226.54"/>
<polygon fill="#d9b526" stroke="black" points="289.31,-228.64 292.45,-218.52 283.69,-224.47 289.31,-228.64"/>
</g>
<!-- config&#45;&gt;main_py -->
<g id="edge9" class="edge">
<title>config&#45;&gt;main_py</title><style>.edge>path:hover{stroke-width:8}</style>
<path fill="none" stroke="black" d="M340.39,-324.52C345.56,-297.74 355.71,-244.91 364,-200"/>
</g>
<!-- ollama_client -->
<g id="node16" class="node">
<title>ollama_client</title><style>.edge>path:hover{stroke-width:8}</style>
<polygon fill="#17d3d3" stroke="black" points="465.5,-289 462.5,-293 441.5,-293 438.5,-289 392.5,-289 392.5,-253 465.5,-253 465.5,-289"/>
<text xml:space="preserve" text-anchor="middle" x="429" y="-267.12" font-family="Helvetica,sans-Serif" font-size="10.00" fill="#000000">ollama_client</text>
</g>
<!-- config&#45;&gt;ollama_client -->
<g id="edge10" class="edge">
<title>config&#45;&gt;ollama_client</title><style>.edge>path:hover{stroke-width:8}</style>
<path fill="none" stroke="black" d="M359.74,-324.7C371.02,-316.11 384.83,-305.61 397.14,-296.24"/>
<polygon fill="#d9b526" stroke="black" points="399.16,-299.1 405,-290.26 394.92,-293.53 399.16,-299.1"/>
</g>
<!-- db&#45;&gt;agents -->
<g id="edge11" class="edge">
<title>db&#45;&gt;agents</title><style>.edge>path:hover{stroke-width:8}</style>
<path fill="none" stroke="black" d="M336.3,-262.73C395.67,-246.72 530.94,-209.12 527,-200"/>
<path fill="none" stroke="black" d="M527,-198C520.42,-182.74 485.03,-161.59 456.53,-146.53"/>
<polygon fill="#cccc33" stroke="black" points="458.24,-143.48 447.75,-141.98 455.01,-149.69 458.24,-143.48"/>
</g>
<!-- db&#45;&gt;exporter -->
<g id="edge12" class="edge">
<title>db&#45;&gt;exporter</title><style>.edge>path:hover{stroke-width:8}</style>
<path fill="none" stroke="black" d="M309,-252.7C309,-245.41 309,-236.73 309,-228.54"/>
<polygon fill="#cccc33" stroke="black" points="312.5,-228.62 309,-218.62 305.5,-228.62 312.5,-228.62"/>
</g>
<!-- db&#45;&gt;main_py -->
<g id="edge13" class="edge">
<title>db&#45;&gt;main_py</title><style>.edge>path:hover{stroke-width:8}</style>
<path fill="none" stroke="black" d="M364,-198C369.64,-167.41 347.02,-154.07 364,-128"/>
<path fill="none" stroke="black" d="M330.52,-252.74C344.22,-239.95 360.1,-221.13 364,-200"/>
</g>
<!-- dotenv -->
<g id="node7" class="node">
<title>dotenv</title><style>.edge>path:hover{stroke-width:8}</style>
<polygon fill="#98ac49" stroke="black" points="364,-433 361,-437 340,-437 337,-433 310,-433 310,-397 364,-397 364,-433"/>
<text xml:space="preserve" text-anchor="middle" x="337" y="-411.12" font-family="Helvetica,sans-Serif" font-size="10.00" fill="#000000">dotenv</text>
</g>
<!-- dotenv&#45;&gt;config -->
<g id="edge14" class="edge">
<title>dotenv&#45;&gt;config</title><style>.edge>path:hover{stroke-width:8}</style>
<path fill="none" stroke="black" d="M337,-396.7C337,-389.41 337,-380.73 337,-372.54"/>
<polygon fill="#98ac49" stroke="black" points="340.5,-372.62 337,-362.62 333.5,-372.62 340.5,-372.62"/>
</g>
<!-- exporter&#45;&gt;main_py -->
<g id="edge15" class="edge">
<title>exporter&#45;&gt;main_py</title><style>.edge>path:hover{stroke-width:8}</style>
<path fill="none" stroke="black" d="M419,-72C418.59,-64.07 418.45,-55.46 418.46,-47.53"/>
<polygon fill="#84ac49" stroke="black" points="421.96,-47.74 418.54,-37.71 414.96,-47.68 421.96,-47.74"/>
<path fill="none" stroke="black" d="M364,-126C368.63,-118.89 419.44,-81.48 419,-73"/>
<path fill="none" stroke="black" d="M324.15,-180.52C335.75,-166.74 351.77,-146.78 364,-128"/>
</g>
<!-- feedparser -->
<g id="node9" class="node">
<title>feedparser</title><style>.edge>path:hover{stroke-width:8}</style>
<polygon fill="blue" stroke="black" points="723.88,-361 720.88,-365 699.88,-365 696.88,-361 662.12,-361 662.12,-325 723.88,-325 723.88,-361"/>
<text xml:space="preserve" text-anchor="middle" x="693" y="-339.12" font-family="Helvetica,sans-Serif" font-size="10.00" fill="white">feedparser</text>
</g>
<!-- rss_fetcher -->
<g id="node22" class="node">
<title>rss_fetcher</title><style>.edge>path:hover{stroke-width:8}</style>
<polygon fill="#614cb3" stroke="black" points="725.38,-289 722.38,-293 701.38,-293 698.38,-289 660.62,-289 660.62,-253 725.38,-253 725.38,-289"/>
<text xml:space="preserve" text-anchor="middle" x="693" y="-267.12" font-family="Helvetica,sans-Serif" font-size="10.00" fill="#ffffff">rss_fetcher</text>
</g>
<!-- feedparser&#45;&gt;rss_fetcher -->
<g id="edge16" class="edge">
<title>feedparser&#45;&gt;rss_fetcher</title><style>.edge>path:hover{stroke-width:8}</style>
<path fill="none" stroke="black" d="M693,-324.7C693,-317.41 693,-308.73 693,-300.54"/>
<polygon fill="blue" stroke="black" points="696.5,-300.62 693,-290.62 689.5,-300.62 696.5,-300.62"/>
</g>
<!-- h2 -->
<g id="node10" class="node">
<title>h2</title><style>.edge>path:hover{stroke-width:8}</style>
<polygon fill="#67b653" stroke="black" points="337,-867 334,-871 313,-871 310,-867 283,-867 283,-831 337,-831 337,-867"/>
<text xml:space="preserve" text-anchor="middle" x="310" y="-845.12" font-family="Helvetica,sans-Serif" font-size="10.00" fill="#000000">h2</text>
</g>
<!-- h2&#45;&gt;httpx -->
<g id="edge17" class="edge">
<title>h2&#45;&gt;httpx</title><style>.edge>path:hover{stroke-width:8}</style>
<path fill="none" stroke="black" d="M282.65,-835.68C262.46,-825 240.77,-809.09 255,-795"/>
</g>
<!-- httpcore&#45;&gt;httpx -->
<g id="edge18" class="edge">
<title>httpcore&#45;&gt;httpx</title><style>.edge>path:hover{stroke-width:8}</style>
<path fill="none" stroke="black" d="M153.08,-902.5C148.74,-883.15 145.19,-851.95 160,-831 186.07,-794.13 222.92,-826.77 255,-795"/>
</g>
<!-- httpx&#45;&gt;ollama -->
<g id="edge19" class="edge">
<title>httpx&#45;&gt;ollama</title><style>.edge>path:hover{stroke-width:8}</style>
<path fill="none" stroke="black" d="M362.05,-721.57C372.74,-707.81 387.36,-687.86 398,-669"/>
</g>
<!-- httpx&#45;&gt;ollama_client -->
<g id="edge20" class="edge">
<title>httpx&#45;&gt;ollama_client</title><style>.edge>path:hover{stroke-width:8}</style>
<path fill="none" stroke="black" d="M347.54,-721.96C347.41,-691.37 350.34,-625.87 375,-578 385.36,-557.89 405.76,-564.01 411,-542"/>
<path fill="none" stroke="black" d="M411,-541C427.37,-454.73 429.42,-350.44 429.34,-300.87"/>
<polygon fill="blue" stroke="black" points="432.84,-300.99 429.29,-291.01 425.84,-301.02 432.84,-300.99"/>
</g>
<!-- solana -->
<g id="node24" class="node">
<title>solana</title><style>.edge>path:hover{stroke-width:8}</style>
<polygon fill="#933bce" stroke="black" points="561,-505 558,-509 537,-509 534,-505 507,-505 507,-469 561,-469 561,-505"/>
<text xml:space="preserve" text-anchor="middle" x="534" y="-483.12" font-family="Helvetica,sans-Serif" font-size="10.00" fill="#ffffff">solana</text>
</g>
<!-- httpx&#45;&gt;solana -->
<g id="edge21" class="edge">
<title>httpx&#45;&gt;solana</title><style>.edge>path:hover{stroke-width:8}</style>
<path fill="none" stroke="black" d="M375.18,-731.32C424.36,-715.55 523.97,-674.35 534,-597"/>
<path fill="none" stroke="black" d="M534,-595C537.83,-568.6 537.36,-538.14 536.21,-516.49"/>
<polygon fill="blue" stroke="black" points="539.72,-516.43 535.6,-506.67 532.73,-516.87 539.72,-516.43"/>
</g>
<!-- idna -->
<g id="node13" class="node">
<title>idna</title><style>.edge>path:hover{stroke-width:8}</style>
<polygon fill="blue" stroke="black" points="54,-1336 51,-1340 30,-1340 27,-1336 0,-1336 0,-1300 54,-1300 54,-1336"/>
<text xml:space="preserve" text-anchor="middle" x="27" y="-1314.12" font-family="Helvetica,sans-Serif" font-size="10.00" fill="white">idna</text>
</g>
<!-- idna&#45;&gt;anyio -->
<g id="edge22" class="edge">
<title>idna&#45;&gt;anyio</title><style>.edge>path:hover{stroke-width:8}</style>
<path fill="none" stroke="black" d="M27,-1263C39.34,-1223.71 81.96,-1245.4 103,-1210"/>
<path fill="none" stroke="black" d="M103,-1208C111.13,-1194.33 119.31,-1178.61 125.81,-1165.54"/>
<polygon fill="blue" stroke="black" points="128.91,-1167.17 130.18,-1156.65 122.63,-1164.09 128.91,-1167.17"/>
</g>
<!-- idna&#45;&gt;httpx -->
<g id="edge23" class="edge">
<title>idna&#45;&gt;httpx</title><style>.edge>path:hover{stroke-width:8}</style>
<path fill="none" stroke="black" d="M27,-1263C43.65,-1210 27,-1193.56 27,-1138 27,-1138 27,-1138 27,-848 27,-789.09 224.03,-756.81 309.36,-745.59"/>
<polygon fill="blue" stroke="black" points="309.66,-749.08 319.13,-744.34 308.77,-742.14 309.66,-749.08"/>
<path fill="none" stroke="black" d="M24.28,-1299.85C23.26,-1289.25 23.14,-1275.52 27,-1264"/>
</g>
<!-- ollama&#45;&gt;ollama_client -->
<g id="edge24" class="edge">
<title>ollama&#45;&gt;ollama_client</title><style>.edge>path:hover{stroke-width:8}</style>
<path fill="none" stroke="black" d="M408.99,-577.58C408.27,-567.12 408.23,-553.64 411,-542"/>
</g>
<!-- ollama_client&#45;&gt;agents -->
<g id="edge25" class="edge">
<title>ollama_client&#45;&gt;agents</title><style>.edge>path:hover{stroke-width:8}</style>
<path fill="none" stroke="black" d="M465.72,-252.86C496.14,-237.4 533.42,-214.88 527,-200"/>
</g>
<!-- prompts -->
<g id="node17" class="node">
<title>prompts</title><style>.edge>path:hover{stroke-width:8}</style>
<polygon fill="#22c0e7" stroke="black" points="643,-289 640,-293 619,-293 616,-289 589,-289 589,-253 643,-253 643,-289"/>
<text xml:space="preserve" text-anchor="middle" x="616" y="-267.12" font-family="Helvetica,sans-Serif" font-size="10.00" fill="#000000">prompts</text>
</g>
<!-- prompts&#45;&gt;agents -->
<g id="edge26" class="edge">
<title>prompts&#45;&gt;agents</title><style>.edge>path:hover{stroke-width:8}</style>
<path fill="none" stroke="black" d="M588.87,-257.86C567.23,-246.45 538.69,-227.07 527,-200"/>
</g>
<!-- pydantic -->
<g id="node18" class="node">
<title>pydantic</title><style>.edge>path:hover{stroke-width:8}</style>
<polygon fill="blue" stroke="black" points="430,-1011 427,-1015 406,-1015 403,-1011 376,-1011 376,-975 430,-975 430,-1011"/>
<text xml:space="preserve" text-anchor="middle" x="403" y="-989.12" font-family="Helvetica,sans-Serif" font-size="10.00" fill="white">pydantic</text>
</g>
<!-- pydantic&#45;&gt;ollama -->
<g id="edge27" class="edge">
<title>pydantic&#45;&gt;ollama</title><style>.edge>path:hover{stroke-width:8}</style>
<path fill="none" stroke="black" d="M403,-974.51C403,-947.71 403,-894.87 403,-850 403,-850 403,-850 403,-794 403,-738.4 370.69,-717.43 398,-669"/>
</g>
<!-- pydantic_core -->
<g id="node19" class="node">
<title>pydantic_core</title><style>.edge>path:hover{stroke-width:8}</style>
<polygon fill="blue" stroke="black" points="561.38,-1227 558.38,-1231 537.38,-1231 534.38,-1227 484.62,-1227 484.62,-1191 561.38,-1191 561.38,-1227"/>
<text xml:space="preserve" text-anchor="middle" x="523" y="-1205.12" font-family="Helvetica,sans-Serif" font-size="10.00" fill="white">pydantic_core</text>
</g>
<!-- pydantic_core&#45;&gt;pydantic -->
<g id="edge28" class="edge">
<title>pydantic_core&#45;&gt;pydantic</title><style>.edge>path:hover{stroke-width:8}</style>
<path fill="none" stroke="black" d="M530.88,-1190.67C538.31,-1171.48 546.35,-1140.41 532,-1119 497.49,-1067.51 420.38,-1125.5 403,-1066"/>
</g>
<!-- pygments -->
<g id="node20" class="node">
<title>pygments</title><style>.edge>path:hover{stroke-width:8}</style>
<polygon fill="blue" stroke="black" points="260.38,-1336 257.38,-1340 236.38,-1340 233.38,-1336 201.62,-1336 201.62,-1300 260.38,-1300 260.38,-1336"/>
<text xml:space="preserve" text-anchor="middle" x="231" y="-1314.12" font-family="Helvetica,sans-Serif" font-size="10.00" fill="white">pygments</text>
</g>
<!-- pygments&#45;&gt;httpx -->
<g id="edge29" class="edge">
<title>pygments&#45;&gt;httpx</title><style>.edge>path:hover{stroke-width:8}</style>
<path fill="none" stroke="black" d="M201.32,-1311.84C153.58,-1301.66 65,-1274.12 65,-1210 65,-1210 65,-1210 65,-920 65,-866.81 100.44,-860.03 145,-831 188.1,-802.92 218.01,-830.75 255,-795"/>
<path fill="none" stroke="black" d="M255,-794C270.12,-777.51 291.58,-764.81 310.08,-755.98"/>
<polygon fill="blue" stroke="black" points="311.52,-759.17 319.18,-751.85 308.63,-752.8 311.52,-759.17"/>
</g>
<!-- rich -->
<g id="node21" class="node">
<title>rich</title><style>.edge>path:hover{stroke-width:8}</style>
<polygon fill="blue" stroke="black" points="392,-1227 389,-1231 368,-1231 365,-1227 338,-1227 338,-1191 392,-1191 392,-1227"/>
<text xml:space="preserve" text-anchor="middle" x="365" y="-1205.12" font-family="Helvetica,sans-Serif" font-size="10.00" fill="white">rich</text>
</g>
<!-- pygments&#45;&gt;rich -->
<g id="edge30" class="edge">
<title>pygments&#45;&gt;rich</title><style>.edge>path:hover{stroke-width:8}</style>
<path fill="none" stroke="black" d="M252.83,-1299.57C275.02,-1281.85 309.59,-1254.25 334.49,-1234.36"/>
<polygon fill="blue" stroke="black" points="336.37,-1237.34 342,-1228.37 332,-1231.87 336.37,-1237.34"/>
</g>
<!-- rich&#45;&gt;httpx -->
<g id="edge31" class="edge">
<title>rich&#45;&gt;httpx</title><style>.edge>path:hover{stroke-width:8}</style>
<path fill="none" stroke="black" d="M348,-992C365.33,-922.57 386.6,-889.93 346,-831 321.32,-795.18 224.06,-825.57 255,-795"/>
<path fill="none" stroke="black" d="M365,-1136C361.15,-1102.91 324.75,-1113.78 312,-1083 305.88,-1068.22 307.3,-1062.29 312,-1047 320.37,-1019.78 339.46,-1021.16 348,-994"/>
<path fill="none" stroke="black" d="M365.57,-1190.72C365.89,-1176.55 366.06,-1155.95 365,-1138"/>
</g>
<!-- rich&#45;&gt;pydantic -->
<g id="edge32" class="edge">
<title>rich&#45;&gt;pydantic</title><style>.edge>path:hover{stroke-width:8}</style>
<path fill="none" stroke="black" d="M365,-1136C360.91,-1100.84 412.93,-1099.98 403,-1066"/>
<path fill="none" stroke="black" d="M403,-1064C399.15,-1050.83 398.7,-1035.66 399.39,-1022.81"/>
<polygon fill="blue" stroke="black" points="402.88,-1023.12 400.21,-1012.86 395.9,-1022.54 402.88,-1023.12"/>
</g>
<!-- rss_fetcher&#45;&gt;agents -->
<g id="edge33" class="edge">
<title>rss_fetcher&#45;&gt;agents</title><style>.edge>path:hover{stroke-width:8}</style>
<path fill="none" stroke="black" d="M660.29,-256.37C612.03,-236.24 527.35,-200.82 527,-200"/>
</g>
<!-- sgmllib -->
<g id="node23" class="node">
<title>sgmllib</title><style>.edge>path:hover{stroke-width:8}</style>
<polygon fill="#7b53b6" stroke="black" points="720,-505 717,-509 696,-509 693,-505 666,-505 666,-469 720,-469 720,-505"/>
<text xml:space="preserve" text-anchor="middle" x="693" y="-483.12" font-family="Helvetica,sans-Serif" font-size="10.00" fill="#ffffff">sgmllib</text>
</g>
<!-- sgmllib&#45;&gt;feedparser -->
<g id="edge34" class="edge">
<title>sgmllib&#45;&gt;feedparser</title><style>.edge>path:hover{stroke-width:8}</style>
<path fill="none" stroke="black" d="M693,-468.59C693,-444.61 693,-401.14 693,-372.42"/>
<polygon fill="#7b53b6" stroke="black" points="696.5,-372.62 693,-362.62 689.5,-372.62 696.5,-372.62"/>
</g>
<!-- solana_executor -->
<g id="node25" class="node">
<title>solana_executor</title><style>.edge>path:hover{stroke-width:8}</style>
<polygon fill="#653172" stroke="black" points="570.62,-289 567.62,-293 546.62,-293 543.62,-289 483.38,-289 483.38,-253 570.62,-253 570.62,-289"/>
<text xml:space="preserve" text-anchor="middle" x="527" y="-267.12" font-family="Helvetica,sans-Serif" font-size="10.00" fill="#ffffff">solana_executor</text>
</g>
<!-- solana&#45;&gt;solana_executor -->
<g id="edge35" class="edge">
<title>solana&#45;&gt;solana_executor</title><style>.edge>path:hover{stroke-width:8}</style>
<path fill="none" stroke="black" d="M555.52,-468.74C569.22,-455.95 585.1,-437.13 589,-416"/>
<path fill="none" stroke="black" d="M589,-414C596.9,-371.17 570.01,-325.71 549.17,-298.09"/>
<polygon fill="#933bce" stroke="black" points="551.98,-296 543.05,-290.28 546.47,-300.31 551.98,-296"/>
</g>
<!-- solana_executor&#45;&gt;agents -->
<g id="edge36" class="edge">
<title>solana_executor&#45;&gt;agents</title><style>.edge>path:hover{stroke-width:8}</style>
<path fill="none" stroke="black" d="M530.72,-252.54C532.98,-237.89 534.22,-216.74 527,-200"/>
</g>
<!-- solders -->
<g id="node26" class="node">
<title>solders</title><style>.edge>path:hover{stroke-width:8}</style>
<polygon fill="blue" stroke="black" points="616,-686 613,-690 592,-690 589,-686 562,-686 562,-650 616,-650 616,-686"/>
<text xml:space="preserve" text-anchor="middle" x="589" y="-664.12" font-family="Helvetica,sans-Serif" font-size="10.00" fill="white">solders</text>
</g>
<!-- solders&#45;&gt;solana -->
<g id="edge37" class="edge">
<title>solders&#45;&gt;solana</title><style>.edge>path:hover{stroke-width:8}</style>
<path fill="none" stroke="black" d="M591.49,-649.72C594.45,-625.33 597.94,-579.58 589,-542"/>
<path fill="none" stroke="black" d="M589,-541C585.77,-529.92 578.39,-520.25 570.04,-512.32"/>
<polygon fill="blue" stroke="black" points="572.51,-509.82 562.64,-505.95 567.94,-515.13 572.51,-509.82"/>
</g>
<!-- solders&#45;&gt;solana_executor -->
<g id="edge38" class="edge">
<title>solders&#45;&gt;solana_executor</title><style>.edge>path:hover{stroke-width:8}</style>
<path fill="none" stroke="black" d="M589,-541C573.47,-487.66 583.96,-471.33 589,-416"/>
</g>
<!-- state -->
<g id="node27" class="node">
<title>state</title><style>.edge>path:hover{stroke-width:8}</style>
<polygon fill="#b653a2" stroke="black" points="518,-145 515,-149 494,-149 491,-145 464,-145 464,-109 518,-109 518,-145"/>
<text xml:space="preserve" text-anchor="middle" x="491" y="-123.12" font-family="Helvetica,sans-Serif" font-size="10.00" fill="#ffffff">state</text>
</g>
<!-- state&#45;&gt;main_py -->
<g id="edge39" class="edge">
<title>state&#45;&gt;main_py</title><style>.edge>path:hover{stroke-width:8}</style>
<path fill="none" stroke="black" d="M463.69,-111.78C443.57,-100.39 419.59,-84.47 419,-73"/>
</g>
<!-- typing_extensions -->
<g id="node28" class="node">
<title>typing_extensions</title><style>.edge>path:hover{stroke-width:8}</style>
<polygon fill="#f9109c" stroke="black" points="438.38,-1336 435.38,-1340 414.38,-1340 411.38,-1336 343.62,-1336 343.62,-1300 438.38,-1300 438.38,-1336"/>
<text xml:space="preserve" text-anchor="middle" x="391" y="-1314.12" font-family="Helvetica,sans-Serif" font-size="10.00" fill="#ffffff">typing_extensions</text>
</g>
<!-- typing_extensions&#45;&gt;anyio -->
<g id="edge40" class="edge">
<title>typing_extensions&#45;&gt;anyio</title><style>.edge>path:hover{stroke-width:8}</style>
<path fill="none" stroke="black" d="M343.17,-1308.91C254.67,-1292.79 76.63,-1254.36 103,-1210"/>
</g>
<!-- typing_extensions&#45;&gt;click -->
<g id="edge41" class="edge">
<title>typing_extensions&#45;&gt;click</title><style>.edge>path:hover{stroke-width:8}</style>
<path fill="none" stroke="black" d="M403,-1136C394.35,-1120.32 382.26,-1104.49 371.62,-1091.86"/>
<polygon fill="#f9109c" stroke="black" points="374.38,-1089.7 365.19,-1084.43 369.08,-1094.28 374.38,-1089.7"/>
<path fill="none" stroke="black" d="M457,-1208C442.13,-1171.63 421.98,-1172.4 403,-1138"/>
<path fill="none" stroke="black" d="M490,-1263C502.68,-1238.32 467.5,-1235.68 457,-1210"/>
</g>
<!-- typing_extensions&#45;&gt;ollama -->
<g id="edge42" class="edge">
<title>typing_extensions&#45;&gt;ollama</title><style>.edge>path:hover{stroke-width:8}</style>
<path fill="none" stroke="black" d="M589,-739C581.82,-700.09 558.87,-699.77 534,-669"/>
<path fill="none" stroke="black" d="M534,-667C511.92,-639.67 476.12,-621.03 448.82,-609.9"/>
<polygon fill="#f9109c" stroke="black" points="450.45,-606.78 439.86,-606.41 447.91,-613.3 450.45,-606.78"/>
<path fill="none" stroke="black" d="M490,-1263C507.81,-1228.32 545.51,-1257.34 570,-1227 595.41,-1195.53 589,-1178.45 589,-1138 589,-1138 589,-1138 589,-848 589,-800.44 597.63,-787.77 589,-741"/>
</g>
<!-- typing_extensions&#45;&gt;pydantic -->
<g id="edge43" class="edge">
<title>typing_extensions&#45;&gt;pydantic</title><style>.edge>path:hover{stroke-width:8}</style>
<path fill="none" stroke="black" d="M403,-1136C387.97,-1108.76 411.16,-1096.02 403,-1066"/>
</g>
<!-- typing_extensions&#45;&gt;pydantic_core -->
<g id="edge44" class="edge">
<title>typing_extensions&#45;&gt;pydantic_core</title><style>.edge>path:hover{stroke-width:8}</style>
<path fill="none" stroke="black" d="M490,-1263C494.51,-1254.23 499.98,-1244.99 505.16,-1236.74"/>
<polygon fill="#f9109c" stroke="black" points="507.98,-1238.82 510.44,-1228.52 502.09,-1235.04 507.98,-1238.82"/>
</g>
<!-- typing_extensions&#45;&gt;rich -->
<g id="edge45" class="edge">
<title>typing_extensions&#45;&gt;rich</title><style>.edge>path:hover{stroke-width:8}</style>
<path fill="none" stroke="black" d="M438.69,-1304.63C458.74,-1296.66 479.76,-1283.94 490,-1264"/>
<path fill="none" stroke="black" d="M490,-1263C498.96,-1245.55 443.42,-1228.38 403.47,-1218.51"/>
<polygon fill="#f9109c" stroke="black" points="404.44,-1215.14 393.9,-1216.22 402.81,-1221.95 404.44,-1215.14"/>
</g>
<!-- typing_extensions&#45;&gt;solana -->
<g id="edge46" class="edge">
<title>typing_extensions&#45;&gt;solana</title><style>.edge>path:hover{stroke-width:8}</style>
<path fill="none" stroke="black" d="M534,-667C514.45,-642.8 528.69,-627.65 534,-597"/>
</g>
<!-- typing_extensions&#45;&gt;solders -->
<g id="edge47" class="edge">
<title>typing_extensions&#45;&gt;solders</title><style>.edge>path:hover{stroke-width:8}</style>
<path fill="none" stroke="black" d="M589,-739C586.53,-725.6 586.22,-710.5 586.66,-697.77"/>
<polygon fill="#f9109c" stroke="black" points="590.15,-698.1 587.18,-687.93 583.15,-697.73 590.15,-698.1"/>
</g>
<!-- typing_inspection -->
<g id="node29" class="node">
<title>typing_inspection</title><style>.edge>path:hover{stroke-width:8}</style>
<polygon fill="#f3166f" stroke="black" points="522.88,-1155 519.88,-1159 498.88,-1159 495.88,-1155 431.12,-1155 431.12,-1119 522.88,-1119 522.88,-1155"/>
<text xml:space="preserve" text-anchor="middle" x="477" y="-1133.12" font-family="Helvetica,sans-Serif" font-size="10.00" fill="#ffffff">typing_inspection</text>
</g>
<!-- typing_extensions&#45;&gt;typing_inspection -->
<g id="edge48" class="edge">
<title>typing_extensions&#45;&gt;typing_inspection</title><style>.edge>path:hover{stroke-width:8}</style>
<path fill="none" stroke="black" d="M457,-1208C451.43,-1194.38 455.06,-1178.67 460.68,-1165.59"/>
<polygon fill="#f9109c" stroke="black" points="463.78,-1167.21 465.04,-1156.69 457.5,-1164.13 463.78,-1167.21"/>
</g>
<!-- typing_inspection&#45;&gt;pydantic -->
<g id="edge49" class="edge">
<title>typing_inspection&#45;&gt;pydantic</title><style>.edge>path:hover{stroke-width:8}</style>
<path fill="none" stroke="black" d="M446.74,-1118.69C429.31,-1106.59 409.6,-1088.58 403,-1066"/>
</g>
<!-- zstandard -->
<g id="node30" class="node">
<title>zstandard</title><style>.edge>path:hover{stroke-width:8}</style>
<polygon fill="#b65367" stroke="black" points="227.38,-867 224.38,-871 203.38,-871 200.38,-867 168.62,-867 168.62,-831 227.38,-831 227.38,-867"/>
<text xml:space="preserve" text-anchor="middle" x="198" y="-845.12" font-family="Helvetica,sans-Serif" font-size="10.00" fill="#ffffff">zstandard</text>
</g>
<!-- zstandard&#45;&gt;httpx -->
<g id="edge50" class="edge">
<title>zstandard&#45;&gt;httpx</title><style>.edge>path:hover{stroke-width:8}</style>
<path fill="none" stroke="black" d="M217.28,-830.63C228.46,-820.42 242.71,-807.17 255,-795"/>
</g>
</g>
</svg>
